<?xml version="1.0" encoding="UTF-8" standalone="no"?>
<!DOCTYPE svg PUBLIC "-//W3C//DTD SVG 1.1//EN"
 "http://www.w3.org/Graphics/SVG/1.1/DTD/svg11.dtd">
<!-- Generated by graphviz version 9.0.0 (20230911.1827)
 -->
<!-- Title: G Pages: 1 -->
<svg width="622pt" height="335pt"
 viewBox="28.80 28.80 593.20 306.30" xmlns="http://www.w3.org/2000/svg" xmlns:xlink="http://www.w3.org/1999/xlink">
<g id="graph0" class="graph" transform="scale(1 1) rotate(0) translate(32.8 302.3)">
<title>G</title>
<polygon fill="white" stroke="none" points="-4,4 -4,-273.5 560.4,-273.5 560.4,4 -4,4"/>
<!-- E -->
<g id="node1" class="node">
<title>E</title>
<ellipse fill="#cccccc" stroke="black" cx="165.2" cy="-25.2" rx="43.2" ry="25.2"/>
<text text-anchor="middle" x="165.2" y="-20.15" font-family="Times,serif" font-size="14.00">E</text>
</g>
<!-- D -->
<g id="node2" class="node">
<title>D</title>
<ellipse fill="#cccccc" stroke="black" cx="43.2" cy="-25.2" rx="43.2" ry="25.2"/>
<text text-anchor="middle" x="43.2" y="-20.15" font-family="Times,serif" font-size="14.00">D</text>
</g>
<!-- D&#45;&gt;E -->
<g id="edge4" class="edge">
<title>D&#45;&gt;E</title>
<path fill="none" stroke="black" d="M86.57,-25.2C94.41,-25.2 102.25,-25.2 110.09,-25.2"/>
<polygon fill="black" stroke="black" points="110.07,-28.7 120.07,-25.2 110.07,-21.7 110.07,-28.7"/>
</g>
<!-- C -->
<g id="node3" class="node">
<title>C</title>
<ellipse fill="#cccccc" stroke="black" cx="269.2" cy="-25.2" rx="43.2" ry="25.2"/>
<text text-anchor="middle" x="269.2" y="-20.15" font-family="Times,serif" font-size="14.00">C</text>
</g>
<!-- F -->
<g id="node4" class="node">
<title>F</title>
<ellipse fill="#cccccc" stroke="black" cx="391.2" cy="-25.2" rx="43.2" ry="25.2"/>
<text text-anchor="middle" x="391.2" y="-20.15" font-family="Times,serif" font-size="14.00">F</text>
</g>
<!-- C&#45;&gt;F -->
<g id="edge5" class="edge">
<title>C&#45;&gt;F</title>
<path fill="none" stroke="black" d="M312.57,-25.2C320.41,-25.2 328.25,-25.2 336.09,-25.2"/>
<polygon fill="black" stroke="black" points="336.07,-28.7 346.07,-25.2 336.07,-21.7 336.07,-28.7"/>
</g>
<!-- G -->
<g id="node5" class="node">
<title>G</title>
<ellipse fill="#cccccc" stroke="black" cx="513.2" cy="-25.2" rx="43.2" ry="25.2"/>
<text text-anchor="middle" x="513.2" y="-20.15" font-family="Times,serif" font-size="14.00">G</text>
</g>
<!-- F&#45;&gt;G -->
<g id="edge6" class="edge">
<title>F&#45;&gt;G</title>
<path fill="none" stroke="black" d="M434.57,-25.2C442.41,-25.2 450.25,-25.2 458.09,-25.2"/>
<polygon fill="black" stroke="black" points="458.07,-28.7 468.07,-25.2 458.07,-21.7 458.07,-28.7"/>
</g>
<!-- A -->
<g id="node6" class="node">
<title>A</title>
<ellipse fill="salmon" stroke="black" cx="155.2" cy="-233.5" rx="72" ry="36"/>
<text text-anchor="middle" x="155.2" y="-228.45" font-family="Times,serif" font-size="14.00">Hello</text>
</g>
<!-- B -->
<g id="node7" class="node">
<title>B</title>
<polygon fill="skyblue" stroke="black" points="227.2,-145 83.2,-145 83.2,-87.4 227.2,-87.4 227.2,-145"/>
<text text-anchor="middle" x="155.2" y="-111.15" font-family="Times,serif" font-size="14.00">World!</text>
</g>
<!-- A&#45;&gt;B -->
<g id="edge1" class="edge">
<title>A&#45;&gt;B</title>
<path fill="none" stroke="black" d="M155.2,-197.28C155.2,-184.37 155.2,-169.69 155.2,-156.45"/>
<polygon fill="black" stroke="black" points="158.7,-156.78 155.2,-146.78 151.7,-156.78 158.7,-156.78"/>
<text text-anchor="middle" x="180.7" y="-166.2" font-family="Times,serif" font-size="14.00"> connects</text>
</g>
<!-- B&#45;&gt;D -->
<g id="edge3" class="edge">
<title>B&#45;&gt;D</title>
<path fill="none" stroke="black" d="M119.76,-87.04C106.12,-76.2 90.59,-63.86 77.09,-53.13"/>
<polygon fill="black" stroke="black" points="79.32,-50.43 69.31,-46.95 74.96,-55.91 79.32,-50.43"/>
</g>
<!-- B&#45;&gt;C -->
<g id="edge2" class="edge">
<title>B&#45;&gt;C</title>
<path fill="none" stroke="black" d="M191.27,-87.04C205.29,-76.09 221.27,-63.62 235.1,-52.82"/>
<polygon fill="black" stroke="black" points="236.91,-55.85 242.64,-46.94 232.6,-50.33 236.91,-55.85"/>
</g>
</g>
</svg>
